<?xml version="1.0" standalone="no"?>
<svg viewBox="0 0 200 200" xmlns="http://www.w3.org/2000/svg">
  <path fill="#FF0066" d="M33.2,-54.2C45.1,-44,58.1,-38.3,60.2,-28.9C62.2,-19.5,53.3,-6.6,49.5,5.8C45.7,18.2,47,30.1,42.7,39.3C38.3,48.6,28.3,55.3,18.3,54.9C8.3,54.4,-1.6,46.7,-15.1,45.5C-28.6,44.2,-45.7,49.3,-57.7,44.8C-69.7,40.3,-76.5,26.1,-78.4,11.4C-80.3,-3.3,-77.2,-18.6,-66.9,-26.2C-56.6,-33.8,-39.1,-33.7,-26.8,-43.6C-14.4,-53.6,-7.2,-73.6,1.7,-76.3C10.7,-79,21.3,-64.4,33.2,-54.2Z" transform="translate(100 100)" />
</svg>
